<svg width="1448" height="308" viewBox="0 0 1448 308" fill="none" xmlns="http://www.w3.org/2000/svg">
<path d="M95.5332 0C101.336 7.39218e-05 106.948 2.01892 111.426 5.70996L197.544 76.7041C203.047 81.2402 210.982 81.2749 216.524 76.7871L304.473 5.57129C308.924 1.96702 314.478 5.58874e-05 320.205 0H352.5C366.307 0 377.5 11.193 377.5 25V269C396.83 269 412.5 284.67 412.5 304H244.047V290.851C280.769 276.783 307.272 241.533 309.747 199.495H264.403L306.554 181.666C306.713 181.666 306.793 181.584 306.953 181.502C310.066 179.948 311.424 176.022 309.827 172.751C308.31 169.562 304.478 168.171 301.285 169.807L243.009 199.413L307.672 154.35C307.752 154.268 307.911 154.185 307.991 154.104C310.785 151.895 311.264 147.806 309.108 144.943C306.953 142.081 302.962 141.591 300.168 143.799L230.316 199.495H106.5C108.975 241.533 135.478 276.783 172.2 290.851V304H0C0 284.67 15.67 269 35 269V25C35.0001 11.193 46.1852 -5.00496e-06 59.9922 0H95.5332ZM174.036 126.869C172.839 125.234 170.603 124.906 169.007 126.133C167.41 127.359 167.091 129.649 168.288 131.285L168.688 131.776C170.444 134.23 171.801 135.948 171.801 139.873C171.801 143.799 170.523 145.516 168.688 147.97C166.692 150.75 164.138 154.186 164.138 160.565C164.138 166.944 166.692 170.379 168.688 173.078C169.246 173.896 169.805 174.632 170.284 175.368C171.003 176.513 172.12 177.086 173.317 177.086C173.956 177.086 174.595 176.922 175.233 176.514C176.91 175.45 177.468 173.16 176.431 171.442C175.792 170.379 175.074 169.48 174.436 168.58C172.679 166.127 171.322 164.409 171.322 160.483C171.322 156.558 172.6 154.84 174.436 152.387C176.431 149.688 178.985 146.252 178.985 139.873C178.985 133.494 176.431 130.058 174.436 127.359L174.036 126.869ZM210.119 103.479C208.922 101.843 206.686 101.516 205.09 102.742C203.494 103.969 203.174 106.259 204.371 107.895L204.931 108.712C207.645 112.392 210.039 115.583 210.039 122.207C210.039 128.832 207.645 132.022 204.931 135.702C201.817 139.873 198.305 144.617 198.305 153.695C198.305 162.855 201.817 167.517 204.931 171.688C205.889 172.914 206.687 174.06 207.485 175.368C208.204 176.513 209.321 177.086 210.519 177.086C211.157 177.086 211.796 176.923 212.435 176.514C214.111 175.45 214.67 173.16 213.632 171.442C212.674 169.889 211.636 168.498 210.678 167.189C207.964 163.509 205.569 160.319 205.569 153.695C205.569 147.071 207.964 143.88 210.678 140.2C213.791 136.029 217.304 131.367 217.304 122.207C217.304 113.129 213.791 108.385 210.678 104.214L210.119 103.479ZM246.442 126.869C245.245 125.234 243.01 124.906 241.413 126.133C239.817 127.36 239.497 129.649 240.694 131.285L241.094 131.776C242.85 134.23 244.207 135.948 244.207 139.873C244.207 143.799 242.93 145.516 241.094 147.97C239.018 150.75 236.543 154.186 236.543 160.565C236.543 166.944 239.098 170.379 241.094 173.078C241.652 173.896 242.211 174.632 242.689 175.368C243.408 176.513 244.526 177.086 245.724 177.086C246.362 177.086 247.001 176.923 247.64 176.514C249.316 175.45 249.875 173.16 248.837 171.442C248.198 170.379 247.479 169.48 246.841 168.58C245.085 166.127 243.728 164.409 243.728 160.483C243.728 156.558 245.005 154.84 246.841 152.387C248.837 149.688 251.392 146.252 251.392 139.873C251.392 133.494 248.837 130.058 246.841 127.359L246.442 126.869Z" fill="#E67E22"/>
<path d="M578.375 189.125C581.458 185.375 586.208 181.75 592.625 178.25C599.125 174.667 608.25 172.875 620 172.875C636.667 172.875 648.708 177.167 656.125 185.75C663.542 194.333 667.25 207.208 667.25 224.375V297.375C667.25 299.875 666.708 301.625 665.625 302.625C664.625 303.542 662.875 304 660.375 304H634.625C632.125 304 630.333 303.542 629.25 302.625C628.25 301.625 627.75 299.875 627.75 297.375V230.875C627.75 221.542 626.042 214.875 622.625 210.875C619.208 206.792 614.083 204.75 607.25 204.75C601.167 204.75 596.333 206.125 592.75 208.875C589.25 211.542 586.75 215.167 585.25 219.75V297.375C585.25 299.875 584.708 301.625 583.625 302.625C582.625 303.542 580.875 304 578.375 304H552.625C550.125 304 548.333 303.542 547.25 302.625C546.25 301.625 545.75 299.875 545.75 297.375V230.875C545.75 221.792 543.875 215.167 540.125 211C536.375 206.833 531.458 204.75 525.375 204.75C519.625 204.75 515 206.167 511.5 209C508 211.833 505.292 215.417 503.375 219.75V297.375C503.375 299.875 502.833 301.625 501.75 302.625C500.75 303.542 499 304 496.5 304H470.75C468.25 304 466.458 303.542 465.375 302.625C464.375 301.625 463.875 299.875 463.875 297.375V192.625C463.875 190.625 464.292 189.083 465.125 188C466.875 185.667 468.958 183.292 471.375 180.875C473.875 178.458 476.917 175.875 480.5 173.125C481.583 172.292 482.625 171.875 483.625 171.875C484.542 171.875 485.583 172.292 486.75 173.125C490.25 175.875 493.25 178.5 495.75 181C498.25 183.5 500.458 186.083 502.375 188.75H503C505.833 185.167 510.25 181.625 516.25 178.125C522.25 174.625 530.833 172.875 542 172.875C552.667 172.875 560.583 174.5 565.75 177.75C570.917 180.917 575.125 184.708 578.375 189.125ZM734.25 307.125C722 307.125 712.25 303.708 705 296.875C697.833 289.958 694.25 280.458 694.25 268.375C694.25 262.125 695.375 256.333 697.625 251C699.958 245.583 703.958 240.833 709.625 236.75C715.375 232.583 723.375 229.25 733.625 226.75C743.958 224.25 757.125 222.792 773.125 222.375C773.125 214.792 771.208 209.333 767.375 206C763.625 202.667 757.958 201 750.375 201C743.542 201 737.958 202.167 733.625 204.5C729.292 206.833 726.583 208.417 725.5 209.25C724.333 210.25 722.917 210.625 721.25 210.375C719 210.042 716.583 209.458 714 208.625C711.5 207.792 708.792 206.833 705.875 205.75C705.458 205.583 705 205.333 704.5 205C704 204.583 703.708 204 703.625 203.25C703.625 202.833 703.667 202.333 703.75 201.75C703.833 201.083 704.042 199.917 704.375 198.25C704.708 196.583 705.208 194.542 705.875 192.125C706.542 189.625 707.167 187.708 707.75 186.375C708.5 184.958 709.75 183.625 711.5 182.375C712.917 181.208 717.208 179.333 724.375 176.75C731.542 174.167 741.917 172.875 755.5 172.875C792.917 172.875 811.625 191.083 811.625 227.5V298.25C811.625 299.833 811.167 301.208 810.25 302.375C809.417 303.458 807.958 304 805.875 304H787.125C785.792 304 784.583 303.833 783.5 303.5C782.5 303.083 781.542 302.333 780.625 301.25L772.875 291.25H772C768.167 296.833 763 300.875 756.5 303.375C750.083 305.875 742.667 307.125 734.25 307.125ZM748 278.125C755.667 278.125 761.458 276.167 765.375 272.25C769.292 268.333 771.792 264.292 772.875 260.125V246.25C761.292 246.25 752.583 247.167 746.75 249C741 250.75 737.167 253.083 735.25 256C733.333 258.833 732.375 261.917 732.375 265.25C732.375 270.083 733.875 273.458 736.875 275.375C739.875 277.208 743.583 278.125 748 278.125ZM881 307.125C872.083 307.125 864.667 306.375 858.75 304.875C852.917 303.375 848.208 301.583 844.625 299.5C841.125 297.333 838.375 295.375 836.375 293.625C834.875 292.208 834.708 290.625 835.875 288.875L848.625 270C850.458 267.333 852.542 267.167 854.875 269.5C857.292 271.833 860.542 274.125 864.625 276.375C868.792 278.542 873.958 279.625 880.125 279.625C885.625 279.625 890.125 278.708 893.625 276.875C897.208 274.958 899 272.208 899 268.625C899 266.125 898.208 264.083 896.625 262.5C895.042 260.917 892.25 259.292 888.25 257.625C884.25 255.958 878.667 253.833 871.5 251.25C860.917 247.417 852.917 242.792 847.5 237.375C842.083 231.958 839.375 224.042 839.375 213.625C839.375 204.042 842 196.25 847.25 190.25C852.583 184.25 859.375 179.875 867.625 177.125C875.958 174.292 884.625 172.875 893.625 172.875C905.042 172.875 913.042 173.958 917.625 176.125C922.292 178.208 925.292 179.833 926.625 181C927.875 182.083 928.75 183.333 929.25 184.75C930.333 188 931.167 192.292 931.75 197.625C932.083 200.708 931.292 202.75 929.375 203.75C928.375 204.333 926.792 204.958 924.625 205.625C922.458 206.292 920.292 206.875 918.125 207.375C915.958 207.875 914.333 208.125 913.25 208.125C912.917 208.125 912.542 208.042 912.125 207.875C911.792 207.625 911.167 207.083 910.25 206.25C909.167 205.167 907.292 203.917 904.625 202.5C902.042 201.083 898.458 200.375 893.875 200.375C889.375 200.375 885.583 201.125 882.5 202.625C879.5 204.042 878 206.583 878 210.25C878 214.25 879.917 217.25 883.75 219.25C887.667 221.25 894.083 223.833 903 227C910 229.417 916.083 232.083 921.25 235C926.5 237.833 930.542 241.583 933.375 246.25C936.208 250.833 937.625 257.042 937.625 264.875C937.625 275.042 934.833 283.25 929.25 289.5C923.75 295.667 916.667 300.167 908 303C899.417 305.75 890.417 307.125 881 307.125ZM995.25 307.125C983 307.125 973.25 303.708 966 296.875C958.833 289.958 955.25 280.458 955.25 268.375C955.25 262.125 956.375 256.333 958.625 251C960.958 245.583 964.958 240.833 970.625 236.75C976.375 232.583 984.375 229.25 994.625 226.75C1004.96 224.25 1018.12 222.792 1034.12 222.375C1034.12 214.792 1032.21 209.333 1028.38 206C1024.62 202.667 1018.96 201 1011.38 201C1004.54 201 998.958 202.167 994.625 204.5C990.292 206.833 987.583 208.417 986.5 209.25C985.333 210.25 983.917 210.625 982.25 210.375C980 210.042 977.583 209.458 975 208.625C972.5 207.792 969.792 206.833 966.875 205.75C966.458 205.583 966 205.333 965.5 205C965 204.583 964.708 204 964.625 203.25C964.625 202.833 964.667 202.333 964.75 201.75C964.833 201.083 965.042 199.917 965.375 198.25C965.708 196.583 966.208 194.542 966.875 192.125C967.542 189.625 968.167 187.708 968.75 186.375C969.5 184.958 970.75 183.625 972.5 182.375C973.917 181.208 978.208 179.333 985.375 176.75C992.542 174.167 1002.92 172.875 1016.5 172.875C1053.92 172.875 1072.62 191.083 1072.62 227.5V298.25C1072.62 299.833 1072.17 301.208 1071.25 302.375C1070.42 303.458 1068.96 304 1066.88 304H1048.12C1046.79 304 1045.58 303.833 1044.5 303.5C1043.5 303.083 1042.54 302.333 1041.62 301.25L1033.88 291.25H1033C1029.17 296.833 1024 300.875 1017.5 303.375C1011.08 305.875 1003.67 307.125 995.25 307.125ZM1009 278.125C1016.67 278.125 1022.46 276.167 1026.38 272.25C1030.29 268.333 1032.79 264.292 1033.88 260.125V246.25C1022.29 246.25 1013.58 247.167 1007.75 249C1002 250.75 998.167 253.083 996.25 256C994.333 258.833 993.375 261.917 993.375 265.25C993.375 270.083 994.875 273.458 997.875 275.375C1000.88 277.208 1004.58 278.125 1009 278.125ZM1144.62 297.375C1144.62 299.875 1144.08 301.625 1143 302.625C1142 303.542 1140.25 304 1137.75 304H1112C1109.5 304 1107.71 303.542 1106.62 302.625C1105.62 301.625 1105.12 299.875 1105.12 297.375V128.25C1105.12 126.25 1105.54 124.708 1106.38 123.625C1109.88 119.042 1115 114.083 1121.75 108.75C1122.92 107.917 1123.96 107.5 1124.88 107.5C1125.96 107.5 1127 107.917 1128 108.75C1131.58 111.5 1134.58 114.083 1137 116.5C1139.5 118.917 1141.62 121.292 1143.38 123.625C1144.21 124.708 1144.62 126.25 1144.62 128.25V226.375H1146.12C1158.79 226.375 1167.38 224.125 1171.88 219.625C1176.46 215.042 1178.75 208.708 1178.75 200.625V193.875C1178.75 191.875 1179.17 190.333 1180 189.25C1183.5 184.667 1188.62 179.708 1195.38 174.375C1196.54 173.542 1197.58 173.125 1198.5 173.125C1199.58 173.125 1200.62 173.542 1201.62 174.375C1205.21 177.125 1208.21 179.708 1210.62 182.125C1213.12 184.542 1215.25 186.917 1217 189.25C1217.83 190.333 1218.25 191.875 1218.25 193.875V200.625C1218.25 205.375 1217.29 210.625 1215.38 216.375C1213.54 222.125 1210.17 227.208 1205.25 231.625C1200.33 236.042 1193.33 238.625 1184.25 239.375V240C1191.25 243.083 1197.29 247.167 1202.38 252.25C1207.46 257.333 1211.71 262.792 1215.12 268.625C1218.54 274.375 1221.17 279.917 1223 285.25C1224.92 290.5 1226.17 294.958 1226.75 298.625C1227.33 302.208 1226.12 304 1223.12 304H1190.25C1187.42 304 1185.79 302.292 1185.38 298.875C1184.79 294.958 1183.5 290.375 1181.5 285.125C1179.58 279.792 1176.96 274.583 1173.62 269.5C1170.38 264.417 1166.42 260.208 1161.75 256.875C1157.17 253.458 1151.96 251.75 1146.12 251.75H1144.62V297.375ZM1244.38 134C1244.38 132.917 1244.71 131.958 1245.38 131.125C1246.04 130.292 1246.92 129.208 1248 127.875C1250.33 125.208 1253.04 122.417 1256.12 119.5C1259.21 116.5 1262.33 113.625 1265.5 110.875C1267.5 109.292 1269 108.5 1270 108.5C1271 108.5 1272.54 109.292 1274.62 110.875C1281.38 116.708 1287.12 122.375 1291.88 127.875C1292.96 129.125 1293.83 130.208 1294.5 131.125C1295.25 131.958 1295.62 132.917 1295.62 134C1295.62 135.083 1295.25 136.042 1294.5 136.875C1293.83 137.708 1292.92 138.833 1291.75 140.25C1289.5 142.833 1286.88 145.625 1283.88 148.625C1280.88 151.542 1277.79 154.333 1274.62 157C1273.46 158 1272.54 158.667 1271.88 159C1271.21 159.25 1270.58 159.375 1270 159.375C1269.42 159.375 1268.79 159.25 1268.12 159C1267.54 158.667 1266.58 158 1265.25 157C1261.92 154.333 1258.79 151.542 1255.88 148.625C1252.96 145.625 1250.33 142.75 1248 140C1246.92 138.667 1246.04 137.625 1245.38 136.875C1244.71 136.042 1244.38 135.083 1244.38 134ZM1289.62 297.375C1289.62 299.875 1289.08 301.625 1288 302.625C1287 303.542 1285.25 304 1282.75 304H1257C1254.5 304 1252.71 303.542 1251.62 302.625C1250.62 301.625 1250.12 299.875 1250.12 297.375V182.625C1250.12 180.125 1250.62 178.417 1251.62 177.5C1252.71 176.5 1254.5 176 1257 176H1282.75C1285.25 176 1287 176.5 1288 177.5C1289.08 178.417 1289.62 180.125 1289.62 182.625V297.375ZM1447.38 224.375V297.375C1447.38 299.875 1446.83 301.625 1445.75 302.625C1444.75 303.542 1443 304 1440.5 304H1414.75C1412.25 304 1410.46 303.542 1409.38 302.625C1408.38 301.625 1407.88 299.875 1407.88 297.375V230.875C1407.88 221.792 1405.96 215.167 1402.12 211C1398.29 206.833 1393.08 204.75 1386.5 204.75C1379.92 204.75 1374.83 206.167 1371.25 209C1367.75 211.833 1365.04 215.417 1363.12 219.75V297.375C1363.12 299.875 1362.58 301.625 1361.5 302.625C1360.5 303.542 1358.75 304 1356.25 304H1330.5C1328 304 1326.21 303.542 1325.12 302.625C1324.12 301.625 1323.62 299.875 1323.62 297.375V192.625C1323.62 190.625 1324.04 189.083 1324.88 188C1326.62 185.667 1328.71 183.292 1331.12 180.875C1333.62 178.458 1336.67 175.875 1340.25 173.125C1341.33 172.292 1342.38 171.875 1343.38 171.875C1344.29 171.875 1345.33 172.292 1346.5 173.125C1350 175.875 1353 178.5 1355.5 181C1358 183.5 1360.21 186.083 1362.12 188.75H1362.75C1364.17 186.917 1366.29 184.792 1369.12 182.375C1371.96 179.875 1375.92 177.667 1381 175.75C1386.17 173.833 1392.75 172.875 1400.75 172.875C1408.58 172.875 1416.04 174.458 1423.12 177.625C1430.21 180.792 1436 186.125 1440.5 193.625C1445.08 201.125 1447.38 211.375 1447.38 224.375Z" fill="#628141"/>
</svg>
