<svg width="413" height="304" viewBox="0 0 413 304" fill="none" xmlns="http://www.w3.org/2000/svg">
<path d="M95.5332 0C101.336 7.39218e-05 106.948 2.01892 111.426 5.70996L197.544 76.7041C203.047 81.2402 210.982 81.2749 216.524 76.7871L304.473 5.57129C308.924 1.96702 314.478 5.58874e-05 320.205 0H352.5C366.307 0 377.5 11.193 377.5 25V269C396.83 269 412.5 284.67 412.5 304H244.047V290.851C280.769 276.783 307.272 241.533 309.747 199.495H264.403L306.554 181.666C306.713 181.666 306.793 181.584 306.953 181.502C310.066 179.948 311.424 176.022 309.827 172.751C308.31 169.562 304.478 168.171 301.285 169.807L243.009 199.413L307.672 154.35C307.752 154.268 307.911 154.185 307.991 154.104C310.785 151.895 311.264 147.806 309.108 144.943C306.953 142.081 302.962 141.591 300.168 143.799L230.316 199.495H106.5C108.975 241.533 135.478 276.783 172.2 290.851V304H0C0 284.67 15.67 269 35 269V25C35.0001 11.193 46.1852 -5.00496e-06 59.9922 0H95.5332ZM174.036 126.869C172.839 125.234 170.603 124.906 169.007 126.133C167.41 127.359 167.091 129.649 168.288 131.285L168.688 131.776C170.444 134.23 171.801 135.948 171.801 139.873C171.801 143.799 170.523 145.516 168.688 147.97C166.692 150.75 164.138 154.186 164.138 160.565C164.138 166.944 166.692 170.379 168.688 173.078C169.246 173.896 169.805 174.632 170.284 175.368C171.003 176.513 172.12 177.086 173.317 177.086C173.956 177.086 174.595 176.922 175.233 176.514C176.91 175.45 177.468 173.16 176.431 171.442C175.792 170.379 175.074 169.48 174.436 168.58C172.679 166.127 171.322 164.409 171.322 160.483C171.322 156.558 172.6 154.84 174.436 152.387C176.431 149.688 178.985 146.252 178.985 139.873C178.985 133.494 176.431 130.058 174.436 127.359L174.036 126.869ZM210.119 103.479C208.922 101.843 206.686 101.516 205.09 102.742C203.494 103.969 203.174 106.259 204.371 107.895L204.931 108.712C207.645 112.392 210.039 115.583 210.039 122.207C210.039 128.832 207.645 132.022 204.931 135.702C201.817 139.873 198.305 144.617 198.305 153.695C198.305 162.855 201.817 167.517 204.931 171.688C205.889 172.914 206.687 174.06 207.485 175.368C208.204 176.513 209.321 177.086 210.519 177.086C211.157 177.086 211.796 176.923 212.435 176.514C214.111 175.45 214.67 173.16 213.632 171.442C212.674 169.889 211.636 168.498 210.678 167.189C207.964 163.509 205.569 160.319 205.569 153.695C205.569 147.071 207.964 143.88 210.678 140.2C213.791 136.029 217.304 131.367 217.304 122.207C217.304 113.129 213.791 108.385 210.678 104.214L210.119 103.479ZM246.442 126.869C245.245 125.234 243.01 124.906 241.413 126.133C239.817 127.36 239.497 129.649 240.694 131.285L241.094 131.776C242.85 134.23 244.207 135.948 244.207 139.873C244.207 143.799 242.93 145.516 241.094 147.97C239.018 150.75 236.543 154.186 236.543 160.565C236.543 166.944 239.098 170.379 241.094 173.078C241.652 173.896 242.211 174.632 242.689 175.368C243.408 176.513 244.526 177.086 245.724 177.086C246.362 177.086 247.001 176.923 247.64 176.514C249.316 175.45 249.875 173.16 248.837 171.442C248.198 170.379 247.479 169.48 246.841 168.58C245.085 166.127 243.728 164.409 243.728 160.483C243.728 156.558 245.005 154.84 246.841 152.387C248.837 149.688 251.392 146.252 251.392 139.873C251.392 133.494 248.837 130.058 246.841 127.359L246.442 126.869Z" fill="#E67E22"/>
</svg>
